<svg width="40" height="40" viewBox="0 0 40 40" fill="none" xmlns="http://www.w3.org/2000/svg">
<rect x="0.25" y="0.25" width="39.5" height="39.5" rx="19.75" fill="white"/>
<rect x="0.25" y="0.25" width="39.5" height="39.5" rx="19.75" stroke="#F1F5FA" stroke-width="0.5"/>
<path d="M25.7459 18.7845C25.8172 18.6882 25.9529 18.6679 26.0492 18.7392C26.1454 18.8104 26.1657 18.9462 26.0945 19.0424L20.548 26.5364C19.122 28.4632 16.4095 28.8683 14.4827 27.4423C12.556 26.0163 12.1509 23.3037 13.5769 21.377L20.0262 12.663C21.024 11.3149 22.9238 11.0312 24.2719 12.0289C25.6201 13.0267 25.9038 14.9265 24.906 16.2746L19.4886 23.5944C19.2149 23.9641 18.8056 24.21 18.3506 24.278C17.8956 24.3459 17.4322 24.2304 17.0625 23.9567C16.6927 23.683 16.4468 23.2737 16.3788 22.8187C16.3109 22.3637 16.4265 21.9003 16.7001 21.5306L21.2147 15.4308C21.2859 15.3346 21.4217 15.3143 21.5179 15.3855C21.6142 15.4567 21.6345 15.5925 21.5632 15.6888L17.0487 21.7885C16.6224 22.3645 16.7445 23.1819 17.3204 23.6081C17.8964 24.0344 18.7138 23.9123 19.14 23.3364L24.5575 16.0167C24.968 15.462 25.1413 14.767 25.0394 14.0845C24.9375 13.402 24.5686 12.788 24.014 12.3775C23.4593 11.967 22.7643 11.7936 22.0818 11.8955C21.3993 11.9975 20.7853 12.3663 20.3748 12.921L13.9254 21.6349C12.6427 23.3681 13.0076 25.811 14.7407 27.0937C16.4738 28.3764 18.9168 28.0116 20.1995 26.2785L25.7459 18.7845Z" fill="white" stroke="#08121D" stroke-width="0.867278"/>
</svg>
