<svg width="16" height="16" viewBox="0 0 16 16" fill="none" xmlns="http://www.w3.org/2000/svg">
<g clip-path="url(#clip0_654_1265)">
<path d="M9.15241 2.29628L10.3256 4.66208C10.4856 4.99141 10.9122 5.3073 11.2722 5.36779L13.3986 5.724C14.7585 5.95251 15.0784 6.94722 14.0985 7.92849L12.4454 9.5953C12.1654 9.87759 12.0121 10.422 12.0987 10.8118L12.572 12.8752C12.9453 14.5084 12.0854 15.1401 10.6522 14.2866L8.65913 13.097C8.29917 12.8819 7.7059 12.8819 7.33928 13.097L5.34616 14.2866C3.91965 15.1401 3.05308 14.5016 3.42637 12.8752L3.89966 10.8118C3.98631 10.422 3.833 9.87759 3.55303 9.5953L1.89988 7.92849C0.926651 6.94722 1.23995 5.95251 2.5998 5.724L4.72623 5.36779C5.07953 5.3073 5.50614 4.99141 5.66613 4.66208L6.83933 2.29628C7.47926 1.01257 8.51914 1.01257 9.15241 2.29628Z" stroke="#B9C0C6" stroke-linecap="round" stroke-linejoin="round"/>
</g>
<defs>
<clipPath id="clip0_654_1265">
<rect width="16" height="16" fill="white"/>
</clipPath>
</defs>
</svg>
