<svg width="16" height="16" viewBox="0 0 16 16" fill="none" xmlns="http://www.w3.org/2000/svg">
<g clip-path="url(#clip0_617_6355)">
<path d="M14.6673 7.71131C14.6673 11.2334 11.6821 14.0891 8.00065 14.0891C7.56778 14.0897 7.13615 14.0497 6.71093 13.9698C6.40487 13.9123 6.25184 13.8836 6.145 13.8999C6.03817 13.9162 5.88677 13.9967 5.58397 14.1578C4.72741 14.6133 3.72862 14.7741 2.76806 14.5955C3.13314 14.1464 3.38248 13.6076 3.4925 13.03C3.55917 12.6767 3.39398 12.3335 3.14658 12.0822C2.02287 10.9412 1.33398 9.40355 1.33398 7.71131C1.33398 4.18921 4.31917 1.3335 8.00065 1.3335C11.6821 1.3335 14.6673 4.18921 14.6673 7.71131Z" stroke="white" stroke-width="1.5" stroke-linejoin="round"/>
<path d="M7.99766 8H8.00364M10.6613 8H10.6673M5.33398 8H5.33997" stroke="white" stroke-width="2" stroke-linecap="round" stroke-linejoin="round"/>
</g>
<defs>
<clipPath id="clip0_617_6355">
<rect width="16" height="16" fill="white"/>
</clipPath>
</defs>
</svg>
