<svg width="82" height="87" viewBox="0 0 82 87" fill="none" xmlns="http://www.w3.org/2000/svg">
<circle cx="41.1572" cy="31.709" r="13.9912" fill="#9DA6AF"/>
<path d="M41.157 48.291C28.0047 48.291 16.7598 60.4097 12.2164 73.7986C9.98693 80.3686 15.6897 86.1191 22.6277 86.1191H59.6863C66.6242 86.1191 72.3271 80.3686 70.0976 73.7986C65.5542 60.4097 54.3093 48.291 41.157 48.291Z" fill="#9DA6AF"/>
<path fill-rule="evenodd" clip-rule="evenodd" d="M41.1583 68.1738C56.4318 68.1738 68.8134 55.7922 68.8134 40.5186C68.8134 25.2451 56.4318 12.8635 41.1583 12.8635C25.8848 12.8635 13.5032 25.2451 13.5032 40.5186C13.5032 55.7922 25.8848 68.1738 41.1583 68.1738ZM41.1583 80.9377C63.4811 80.9377 81.5773 62.8415 81.5773 40.5186C81.5773 18.1958 63.4811 0.0996094 41.1583 0.0996094C18.8355 0.0996094 0.739258 18.1958 0.739258 40.5186C0.739258 62.8415 18.8355 80.9377 41.1583 80.9377Z" fill="#B9C0C6"/>
<path fill-rule="evenodd" clip-rule="evenodd" d="M68.6465 13.0313C71.1388 15.5236 71.1388 19.5645 68.6465 22.0568L22.6964 68.0068C20.2041 70.4992 16.1633 70.4992 13.671 68.0068C11.1787 65.5145 11.1787 61.4737 13.671 58.9814L59.6211 13.0313C62.1134 10.539 66.1542 10.539 68.6465 13.0313Z" fill="#B9C0C6"/>
</svg>
