<svg width="74" height="24" viewBox="0 0 74 24" fill="none" xmlns="http://www.w3.org/2000/svg">
<rect width="74" height="24" rx="12" fill="#E8F2FC"/>
<g clip-path="url(#clip0_157_2160)">
<path d="M18.8638 7.72209L19.7437 9.49644C19.8637 9.74343 20.1837 9.98035 20.4536 10.0257L22.0485 10.2929C23.0684 10.4643 23.3083 11.2103 22.5734 11.9462L21.3335 13.1964C21.1236 13.4081 21.0086 13.8164 21.0736 14.1087L21.4285 15.6562C21.7085 16.8812 21.0636 17.355 19.9887 16.7148L18.4939 15.8226C18.2239 15.6613 17.7789 15.6613 17.504 15.8226L16.0091 16.7148C14.9393 17.355 14.2893 16.8761 14.5693 15.6562L14.9243 14.1087C14.9892 13.8164 14.8743 13.4081 14.6643 13.1964L13.4244 11.9462C12.6945 11.2103 12.9295 10.4643 13.9494 10.2929L15.5442 10.0257C15.8092 9.98035 16.1291 9.74343 16.2491 9.49644L17.129 7.72209C17.609 6.7593 18.3889 6.7593 18.8638 7.72209Z" fill="#0967D2" stroke="#0967D2" stroke-linecap="round" stroke-linejoin="round"/>
</g>
<path d="M31.8 15H30.77L28.09 8.33H29.04L31.29 14.09L33.54 8.33H34.49L31.8 15ZM36.9163 15.12C35.4863 15.12 34.4563 14.09 34.4563 12.58C34.4563 11.18 35.4563 10.05 36.8363 10.05C38.2963 10.05 39.1563 11.19 39.1563 12.64V12.83H35.2463C35.3063 13.74 35.9463 14.5 36.9863 14.5C37.5363 14.5 38.0963 14.28 38.4763 13.89L38.8363 14.38C38.3563 14.86 37.7063 15.12 36.9163 15.12ZM38.4163 12.28C38.4063 11.56 37.9263 10.67 36.8263 10.67C35.7963 10.67 35.2863 11.54 35.2463 12.28H38.4163ZM41.1211 15H40.3711V10.17H41.1211V10.95C41.5111 10.44 42.0711 10.07 42.7311 10.07V10.84C42.6411 10.82 42.5511 10.81 42.4311 10.81C41.9711 10.81 41.3411 11.19 41.1211 11.58V15ZM44.0419 9.48C43.7719 9.48 43.5419 9.26 43.5419 8.98C43.5419 8.7 43.7719 8.47 44.0419 8.47C44.3219 8.47 44.5519 8.7 44.5519 8.98C44.5519 9.26 44.3219 9.48 44.0419 9.48ZM44.4219 15H43.6719V10.17H44.4219V15ZM46.878 15H46.128V10.83H45.328V10.17H46.128V9.8C46.128 8.81 46.668 8.23 47.528 8.23C47.908 8.23 48.248 8.32 48.548 8.6L48.238 9.09C48.078 8.95 47.888 8.85 47.638 8.85C47.148 8.85 46.878 9.19 46.878 9.8V10.17H47.858V10.83H46.878V15ZM49.12 9.48C48.85 9.48 48.62 9.26 48.62 8.98C48.62 8.7 48.85 8.47 49.12 8.47C49.4 8.47 49.63 8.7 49.63 8.98C49.63 9.26 49.4 9.48 49.12 9.48ZM49.5 15H48.75V10.17H49.5V15ZM53.1761 15.12C51.7461 15.12 50.7161 14.09 50.7161 12.58C50.7161 11.18 51.7161 10.05 53.0961 10.05C54.5561 10.05 55.4161 11.19 55.4161 12.64V12.83H51.5061C51.5661 13.74 52.2061 14.5 53.2461 14.5C53.7961 14.5 54.3561 14.28 54.7361 13.89L55.0961 14.38C54.6161 14.86 53.9661 15.12 53.1761 15.12ZM54.6761 12.28C54.6661 11.56 54.1861 10.67 53.0861 10.67C52.0561 10.67 51.5461 11.54 51.5061 12.28H54.6761ZM60.8809 15H60.1309V14.28C59.7709 14.77 59.1809 15.12 58.5009 15.12C57.2409 15.12 56.3509 14.16 56.3509 12.59C56.3509 11.05 57.2309 10.05 58.5009 10.05C59.1509 10.05 59.7409 10.37 60.1309 10.9V8.33H60.8809V15ZM58.6809 14.45C59.2809 14.45 59.8609 14.11 60.1309 13.69V11.5C59.8609 11.08 59.2809 10.72 58.6809 10.72C57.7109 10.72 57.1309 11.52 57.1309 12.59C57.1309 13.66 57.7109 14.45 58.6809 14.45Z" fill="#0967D2"/>
<defs>
<clipPath id="clip0_157_2160">
<rect width="12" height="12" fill="white" transform="translate(12 6)"/>
</clipPath>
</defs>
</svg>
